# 3ds Max Wavefront OBJ Exporter v0.97b - (c)2007 guruware
# File Created: 10.01.2017 00:20:24

mtllib Mouth2.mtl

#
# object Group63896
#

v  -0.5406 5.6764 -0.5767
v  -0.0074 5.6107 -0.5119
v  -0.0074 6.8049 -0.4417
v  -0.6004 6.7887 -0.5185
v  0.5274 5.6762 -0.5767
v  0.5844 6.7891 -0.5175
v  -1.0120 5.8346 -0.7605
v  -1.2542 6.5261 -0.7163
v  1.0000 5.8358 -0.7600
v  1.2354 6.5276 -0.7166
# 10 vertices

vn -0.2353 -0.0632 0.9699
vn -0.0002 -0.0587 0.9983
vn -0.0005 -0.0591 0.9982
vn -0.2013 -0.0838 0.9759
vn 0.2344 -0.0632 0.9701
vn 0.2013 -0.0833 0.9760
vn -0.3317 -0.0950 0.9386
vn -0.2334 -0.1432 0.9618
vn 0.3321 -0.0940 0.9385
vn 0.2373 -0.1410 0.9611
# 10 vertex normals

vt 0.2924 0.0346 0.0000
vt 0.4993 0.0098 0.0000
vt 0.5012 0.4702 0.0000
vt 0.2711 0.4631 0.0000
vt 0.7069 0.0328 0.0000
vt 0.7307 0.4614 0.0000
vt 0.0971 0.0911 0.0000
vt 0.0098 0.3593 0.0000
vt 0.9031 0.0883 0.0000
vt 0.9902 0.3557 0.0000
# 10 texture coords

g Group63896
usemtl defaultMat
s 1
f 1/1/1 2/2/2 3/3/3 4/4/4 
f 5/5/5 6/6/6 3/3/3 2/2/2 
f 7/7/7 1/1/1 4/4/4 8/8/8 
f 9/9/9 10/10/10 6/6/6 5/5/5 
# 4 polygons

