# 3ds Max Wavefront OBJ Exporter v0.97b - (c)2007 guruware
# File Created: 10.01.2017 00:18:30

mtllib Eye_right2.mtl

#
# object Group47402
#

v  1.3973 8.1151 -0.8863
v  1.4537 8.9245 -1.1117
v  0.4086 8.5224 -0.7576
v  0.3416 8.0755 -0.7155
v  1.9341 8.6543 -1.5010
v  1.9266 7.8997 -1.2271
v  0.4318 7.5129 -0.6397
v  1.3491 7.3345 -0.7674
v  1.9179 7.2246 -1.0458
v  2.1934 7.5863 -1.7793
v  2.2012 7.0880 -1.5799
v  2.2141 8.0486 -1.9618
# 12 vertices

vn 0.4019 0.1741 0.8990
vn 0.4923 0.2015 0.8468
vn 0.1821 0.1342 0.9741
vn 0.1545 0.1142 0.9814
vn 0.7623 0.1805 0.6216
vn 0.7639 0.1642 0.6241
vn 0.1563 0.1492 0.9764
vn 0.3536 0.1530 0.9228
vn 0.7238 0.1875 0.6641
vn 0.9104 0.1234 0.3948
vn 0.8871 0.1834 0.4236
vn 0.9160 0.1200 0.3828
# 12 vertex normals

vt 0.4378 0.3299 0.0000
vt 0.4382 0.6708 0.0000
vt 0.0170 0.4455 0.0000
vt 0.0098 0.2618 0.0000
vt 0.7088 0.6192 0.0000
vt 0.7033 0.2934 0.0000
vt 0.0696 0.0353 0.0000
vt 0.4530 0.0098 0.0000
vt 0.7153 0.0101 0.0000
vt 0.9780 0.2442 0.0000
vt 0.9672 0.0259 0.0000
vt 0.9902 0.4466 0.0000
# 12 texture coords

g Group47402
usemtl defaultMat
s 1
f 1/1/1 2/2/2 3/3/3 4/4/4 
f 5/5/5 2/2/2 1/1/1 6/6/6 
f 1/1/1 4/4/4 7/7/7 8/8/8 
f 6/6/6 1/1/1 8/8/8 9/9/9 
f 10/10/10 6/6/6 9/9/9 11/11/11 
f 12/12/12 5/5/5 6/6/6 10/10/10 
# 6 polygons

