# 3ds Max Wavefront OBJ Exporter v0.97b - (c)2007 guruware
# File Created: 10.01.2017 00:18:05

mtllib Eye_left2.mtl

#
# object Group47402
#

v  -1.4122 8.1137 -0.8862
v  -0.3540 8.0788 -0.7130
v  -0.4178 8.5200 -0.7577
v  -1.4712 8.9234 -1.1144
v  -1.9626 8.7197 -1.4975
v  -1.9399 7.9024 -1.2299
v  -1.3627 7.3343 -0.7674
v  -0.4456 7.5136 -0.6391
v  -1.9320 7.2303 -1.0470
v  -2.2097 7.5867 -1.7794
v  -2.2158 7.0946 -1.5820
v  -2.2308 8.0535 -1.9637
# 12 vertices

vn -0.3981 0.1704 0.9014
vn -0.1567 0.1160 0.9808
vn -0.1828 0.1396 0.9732
vn -0.4825 0.2049 0.8516
vn -0.7543 0.1635 0.6358
vn -0.7645 0.1517 0.6265
vn -0.3542 0.1534 0.9225
vn -0.1582 0.1472 0.9764
vn -0.7215 0.1899 0.6659
vn -0.9088 0.1246 0.3982
vn -0.8871 0.1813 0.4246
vn -0.9168 0.1055 0.3852
# 12 vertex normals

vt 0.5622 0.3284 0.0000
vt 0.9902 0.2606 0.0000
vt 0.9844 0.4415 0.0000
vt 0.5619 0.6688 0.0000
vt 0.2963 0.6436 0.0000
vt 0.2970 0.2949 0.0000
vt 0.5467 0.0098 0.0000
vt 0.9290 0.0342 0.0000
vt 0.2855 0.0131 0.0000
vt 0.0232 0.2438 0.0000
vt 0.0344 0.0291 0.0000
vt 0.0098 0.4473 0.0000
# 12 texture coords

g Group47402
usemtl defaultMat
s 1
f 1/1/1 2/2/2 3/3/3 4/4/4 
f 5/5/5 6/6/6 1/1/1 4/4/4 
f 1/1/1 7/7/7 8/8/8 2/2/2 
f 6/6/6 9/9/9 7/7/7 1/1/1 
f 10/10/10 11/11/11 9/9/9 6/6/6 
f 12/12/12 10/10/10 6/6/6 5/5/5 
# 6 polygons

