# MagicaVoxel @ Ephtracy

# material
mtllib mat-demo-obj.mtl
usemtl palette

# normals
vn -1 0 0
vn 1 0 0
vn 0 0 1
vn 0 0 -1
vn 0 -1 0
vn 0 1 0

# texcoords
vt 0.111328 0.5
vt 0.154297 0.5
vt 0.306641 0.5

# verts
v -3 0 3
v -3 0 -0
v -3 1 2
v -3 1 1
v -3 2 2
v -3 2 1
v -3 3 3
v -3 3 -0
v -1 0 2
v -1 0 1
v -1 1 3
v -1 1 2
v -1 1 1
v -1 1 -0
v -1 2 3
v -1 2 2
v -1 2 1
v -1 2 -0
v -1 3 2
v -1 3 1
v 0 0 -0
v 0 0 -3
v 0 1 -1
v 0 1 -2
v 0 2 -1
v 0 2 -2
v 0 3 -0
v 0 3 -3
v 2 0 2
v 2 0 1
v 2 0 -1
v 2 0 -2
v 2 1 3
v 2 1 2
v 2 1 1
v 2 1 -0
v 2 1 -1
v 2 1 -2
v 2 1 -3
v 2 2 3
v 2 2 2
v 2 2 1
v 2 2 -0
v 2 2 -1
v 2 2 -2
v 2 2 -3
v 2 3 2
v 2 3 1
v 2 3 -1
v 2 3 -2
v -2 0 2
v -2 0 1
v -2 1 3
v -2 1 2
v -2 1 1
v -2 1 -0
v -2 2 3
v -2 2 2
v -2 2 1
v -2 2 -0
v -2 3 2
v -2 3 1
v 1 0 2
v 1 0 1
v 1 0 -1
v 1 0 -2
v 1 1 3
v 1 1 2
v 1 1 1
v 1 1 -0
v 1 1 -1
v 1 1 -2
v 1 1 -3
v 1 2 3
v 1 2 2
v 1 2 1
v 1 2 -0
v 1 2 -1
v 1 2 -2
v 1 2 -3
v 1 3 2
v 1 3 1
v 1 3 -1
v 1 3 -2
v 3 0 3
v 3 0 -0
v 3 0 -3
v 3 1 2
v 3 1 1
v 3 1 -1
v 3 1 -2
v 3 2 2
v 3 2 1
v 3 2 -1
v 3 2 -2
v 3 3 3
v 3 3 -0
v 3 3 -3
v -3 0 3
v -3 3 3
v -2 1 3
v -2 2 3
v -1 1 3
v -1 2 3
v 0 0 3
v 0 3 3
v 1 1 3
v 1 2 3
v 2 1 3
v 2 2 3
v 3 0 3
v 3 3 3
v -3 1 1
v -3 2 1
v -2 0 1
v -2 1 1
v -2 2 1
v -2 3 1
v -1 0 1
v -1 1 1
v -1 2 1
v -1 3 1
v 0 1 1
v 0 2 1
v 1 0 1
v 1 1 1
v 1 2 1
v 1 3 1
v 2 0 1
v 2 1 1
v 2 2 1
v 2 3 1
v 3 1 1
v 3 2 1
v 0 1 -2
v 0 2 -2
v 1 0 -2
v 1 1 -2
v 1 2 -2
v 1 3 -2
v 2 0 -2
v 2 1 -2
v 2 2 -2
v 2 3 -2
v 3 1 -2
v 3 2 -2
v -3 1 2
v -3 2 2
v -2 0 2
v -2 1 2
v -2 2 2
v -2 3 2
v -1 0 2
v -1 1 2
v -1 2 2
v -1 3 2
v 0 1 2
v 0 2 2
v 1 0 2
v 1 1 2
v 1 2 2
v 1 3 2
v 2 0 2
v 2 1 2
v 2 2 2
v 2 3 2
v 3 1 2
v 3 2 2
v -3 0 -0
v -3 3 -0
v -2 1 -0
v -2 2 -0
v -1 1 -0
v -1 2 -0
v 0 0 -0
v 0 3 -0
v 0 1 -1
v 0 2 -1
v 1 0 -1
v 1 1 -1
v 1 2 -1
v 1 3 -1
v 2 0 -1
v 2 1 -1
v 2 2 -1
v 2 3 -1
v 3 1 -1
v 3 2 -1
v 0 0 -3
v 0 3 -3
v 1 1 -3
v 1 2 -3
v 2 1 -3
v 2 2 -3
v 3 0 -3
v 3 3 -3
v -3 0 3
v 0 0 3
v 3 0 3
v -2 0 2
v -1 0 2
v 1 0 2
v 2 0 2
v -2 0 1
v -1 0 1
v 1 0 1
v 2 0 1
v -3 0 -0
v 0 0 -0
v 3 0 -0
v 1 0 -1
v 2 0 -1
v 1 0 -2
v 2 0 -2
v 0 0 -3
v 3 0 -3
v -2 2 3
v -1 2 3
v 1 2 3
v 2 2 3
v -3 2 2
v -2 2 2
v -1 2 2
v 0 2 2
v 1 2 2
v 2 2 2
v 3 2 2
v -3 2 1
v -2 2 1
v -1 2 1
v 0 2 1
v 1 2 1
v 2 2 1
v 3 2 1
v -2 2 -0
v -1 2 -0
v 1 2 -0
v 2 2 -0
v 0 2 -1
v 1 2 -1
v 2 2 -1
v 3 2 -1
v 0 2 -2
v 1 2 -2
v 2 2 -2
v 3 2 -2
v 1 2 -3
v 2 2 -3
v -2 1 3
v -1 1 3
v 1 1 3
v 2 1 3
v -3 1 2
v -2 1 2
v -1 1 2
v 0 1 2
v 1 1 2
v 2 1 2
v 3 1 2
v -3 1 1
v -2 1 1
v -1 1 1
v 0 1 1
v 1 1 1
v 2 1 1
v 3 1 1
v -2 1 -0
v -1 1 -0
v 1 1 -0
v 2 1 -0
v 0 1 -1
v 1 1 -1
v 2 1 -1
v 3 1 -1
v 0 1 -2
v 1 1 -2
v 2 1 -2
v 3 1 -2
v 1 1 -3
v 2 1 -3
v -3 3 3
v 0 3 3
v 3 3 3
v -2 3 2
v -1 3 2
v 1 3 2
v 2 3 2
v -2 3 1
v -1 3 1
v 1 3 1
v 2 3 1
v -3 3 -0
v 0 3 -0
v 3 3 -0
v 1 3 -1
v 2 3 -1
v 1 3 -2
v 2 3 -2
v 0 3 -3
v 3 3 -3

# faces
f 3/3/1 2/3/1 1/3/1
f 4/3/1 2/3/1 3/3/1
f 5/3/1 3/3/1 1/3/1
f 6/3/1 2/3/1 4/3/1
f 7/3/1 5/3/1 1/3/1
f 7/3/1 6/3/1 5/3/1
f 8/3/1 2/3/1 6/3/1
f 8/3/1 6/3/1 7/3/1
f 12/3/1 10/3/1 9/3/1
f 13/3/1 10/3/1 12/3/1
f 15/3/1 12/3/1 11/3/1
f 16/3/1 12/3/1 15/3/1
f 17/3/1 14/3/1 13/3/1
f 18/3/1 14/3/1 17/3/1
f 19/3/1 17/3/1 16/3/1
f 20/3/1 17/3/1 19/3/1
f 23/1/1 22/1/1 21/1/1
f 24/1/1 22/1/1 23/1/1
f 25/1/1 23/1/1 21/1/1
f 26/1/1 22/1/1 24/1/1
f 27/1/1 25/1/1 21/1/1
f 27/1/1 26/1/1 25/1/1
f 28/1/1 22/1/1 26/1/1
f 28/1/1 26/1/1 27/1/1
f 34/2/1 30/2/1 29/2/1
f 35/2/1 30/2/1 34/2/1
f 37/1/1 32/1/1 31/1/1
f 38/1/1 32/1/1 37/1/1
f 40/2/1 34/2/1 33/2/1
f 41/2/1 34/2/1 40/2/1
f 42/2/1 36/2/1 35/2/1
f 43/1/1 37/1/1 36/1/1
f 43/2/1 36/2/1 42/2/1
f 44/1/1 37/1/1 43/1/1
f 45/1/1 39/1/1 38/1/1
f 46/1/1 39/1/1 45/1/1
f 47/2/1 42/2/1 41/2/1
f 48/2/1 42/2/1 47/2/1
f 49/1/1 45/1/1 44/1/1
f 50/1/1 45/1/1 49/1/1
f 51/3/2 52/3/2 54/3/2
f 54/3/2 52/3/2 55/3/2
f 53/3/2 54/3/2 57/3/2
f 57/3/2 54/3/2 58/3/2
f 55/3/2 56/3/2 59/3/2
f 59/3/2 56/3/2 60/3/2
f 58/3/2 59/3/2 61/3/2
f 61/3/2 59/3/2 62/3/2
f 63/2/2 64/2/2 68/2/2
f 68/2/2 64/2/2 69/2/2
f 65/1/2 66/1/2 71/1/2
f 71/1/2 66/1/2 72/1/2
f 67/2/2 68/2/2 74/2/2
f 74/2/2 68/2/2 75/2/2
f 69/2/2 70/2/2 76/2/2
f 70/1/2 71/1/2 77/1/2
f 76/2/2 70/2/2 77/2/2
f 77/1/2 71/1/2 78/1/2
f 72/1/2 73/1/2 79/1/2
f 79/1/2 73/1/2 80/1/2
f 75/2/2 76/2/2 81/2/2
f 81/2/2 76/2/2 82/2/2
f 78/1/2 79/1/2 83/1/2
f 83/1/2 79/1/2 84/1/2
f 85/2/2 86/2/2 88/2/2
f 88/2/2 86/2/2 89/2/2
f 86/1/2 87/1/2 90/1/2
f 90/1/2 87/1/2 91/1/2
f 85/2/2 88/2/2 92/2/2
f 89/2/2 86/2/2 93/2/2
f 86/1/2 90/1/2 94/1/2
f 91/1/2 87/1/2 95/1/2
f 85/2/2 92/2/2 96/2/2
f 92/2/2 93/2/2 96/2/2
f 94/1/2 95/1/2 97/1/2
f 96/2/2 93/2/2 97/2/2
f 86/1/2 94/1/2 97/1/2
f 93/2/2 86/2/2 97/2/2
f 95/1/2 87/1/2 98/1/2
f 97/1/2 95/1/2 98/1/2
f 101/3/3 100/3/3 99/3/3
f 102/3/3 100/3/3 101/3/3
f 103/3/3 101/3/3 99/3/3
f 104/3/3 100/3/3 102/3/3
f 105/3/3 103/3/3 99/3/3
f 105/3/3 104/3/3 103/3/3
f 106/3/3 100/3/3 104/3/3
f 106/3/3 104/3/3 105/3/3
f 107/2/3 106/2/3 105/2/3
f 108/2/3 106/2/3 107/2/3
f 109/2/3 107/2/3 105/2/3
f 110/2/3 106/2/3 108/2/3
f 111/2/3 109/2/3 105/2/3
f 111/2/3 110/2/3 109/2/3
f 112/2/3 106/2/3 110/2/3
f 112/2/3 110/2/3 111/2/3
f 116/3/3 114/3/3 113/3/3
f 117/3/3 114/3/3 116/3/3
f 119/3/3 116/3/3 115/3/3
f 120/3/3 116/3/3 119/3/3
f 121/3/3 118/3/3 117/3/3
f 122/3/3 118/3/3 121/3/3
f 123/3/3 121/3/3 120/3/3
f 124/3/3 121/3/3 123/3/3
f 126/2/3 124/2/3 123/2/3
f 127/2/3 124/2/3 126/2/3
f 129/2/3 126/2/3 125/2/3
f 130/2/3 126/2/3 129/2/3
f 131/2/3 128/2/3 127/2/3
f 132/2/3 128/2/3 131/2/3
f 133/2/3 131/2/3 130/2/3
f 134/2/3 131/2/3 133/2/3
f 138/1/3 136/1/3 135/1/3
f 139/1/3 136/1/3 138/1/3
f 141/1/3 138/1/3 137/1/3
f 142/1/3 138/1/3 141/1/3
f 143/1/3 140/1/3 139/1/3
f 144/1/3 140/1/3 143/1/3
f 145/1/3 143/1/3 142/1/3
f 146/1/3 143/1/3 145/1/3
f 147/3/4 148/3/4 150/3/4
f 150/3/4 148/3/4 151/3/4
f 149/3/4 150/3/4 153/3/4
f 153/3/4 150/3/4 154/3/4
f 151/3/4 152/3/4 155/3/4
f 155/3/4 152/3/4 156/3/4
f 154/3/4 155/3/4 157/3/4
f 157/3/4 155/3/4 158/3/4
f 157/2/4 158/2/4 160/2/4
f 160/2/4 158/2/4 161/2/4
f 159/2/4 160/2/4 163/2/4
f 163/2/4 160/2/4 164/2/4
f 161/2/4 162/2/4 165/2/4
f 165/2/4 162/2/4 166/2/4
f 164/2/4 165/2/4 167/2/4
f 167/2/4 165/2/4 168/2/4
f 169/3/4 170/3/4 171/3/4
f 171/3/4 170/3/4 172/3/4
f 169/3/4 171/3/4 173/3/4
f 172/3/4 170/3/4 174/3/4
f 169/3/4 173/3/4 175/3/4
f 173/3/4 174/3/4 175/3/4
f 174/3/4 170/3/4 176/3/4
f 175/3/4 174/3/4 176/3/4
f 177/1/4 178/1/4 180/1/4
f 180/1/4 178/1/4 181/1/4
f 179/1/4 180/1/4 183/1/4
f 183/1/4 180/1/4 184/1/4
f 181/1/4 182/1/4 185/1/4
f 185/1/4 182/1/4 186/1/4
f 184/1/4 185/1/4 187/1/4
f 187/1/4 185/1/4 188/1/4
f 189/1/4 190/1/4 191/1/4
f 191/1/4 190/1/4 192/1/4
f 189/1/4 191/1/4 193/1/4
f 192/1/4 190/1/4 194/1/4
f 189/1/4 193/1/4 195/1/4
f 193/1/4 194/1/4 195/1/4
f 194/1/4 190/1/4 196/1/4
f 195/1/4 194/1/4 196/1/4
f 200/3/5 198/3/5 197/3/5
f 201/3/5 198/3/5 200/3/5
f 202/2/5 199/2/5 198/2/5
f 203/2/5 199/2/5 202/2/5
f 204/3/5 200/3/5 197/3/5
f 205/3/5 198/3/5 201/3/5
f 206/2/5 202/2/5 198/2/5
f 207/2/5 199/2/5 203/2/5
f 208/3/5 204/3/5 197/3/5
f 208/3/5 205/3/5 204/3/5
f 209/2/5 207/2/5 206/2/5
f 209/3/5 205/3/5 208/3/5
f 209/2/5 206/2/5 198/2/5
f 209/3/5 198/3/5 205/3/5
f 210/2/5 199/2/5 207/2/5
f 210/2/5 207/2/5 209/2/5
f 211/1/5 210/1/5 209/1/5
f 212/1/5 210/1/5 211/1/5
f 213/1/5 211/1/5 209/1/5
f 214/1/5 210/1/5 212/1/5
f 215/1/5 213/1/5 209/1/5
f 215/1/5 214/1/5 213/1/5
f 216/1/5 210/1/5 214/1/5
f 216/1/5 214/1/5 215/1/5
f 222/3/5 218/3/5 217/3/5
f 223/3/5 218/3/5 222/3/5
f 225/2/5 220/2/5 219/2/5
f 226/2/5 220/2/5 225/2/5
f 228/3/5 222/3/5 221/3/5
f 229/3/5 222/3/5 228/3/5
f 230/3/5 224/3/5 223/3/5
f 231/2/5 225/2/5 224/2/5
f 231/3/5 224/3/5 230/3/5
f 232/2/5 225/2/5 231/2/5
f 233/2/5 227/2/5 226/2/5
f 234/2/5 227/2/5 233/2/5
f 235/3/5 230/3/5 229/3/5
f 236/3/5 230/3/5 235/3/5
f 237/2/5 233/2/5 232/2/5
f 238/2/5 233/2/5 237/2/5
f 240/1/5 238/1/5 237/1/5
f 241/1/5 238/1/5 240/1/5
f 243/1/5 240/1/5 239/1/5
f 244/1/5 240/1/5 243/1/5
f 245/1/5 242/1/5 241/1/5
f 246/1/5 242/1/5 245/1/5
f 247/1/5 245/1/5 244/1/5
f 248/1/5 245/1/5 247/1/5
f 249/3/6 250/3/6 254/3/6
f 254/3/6 250/3/6 255/3/6
f 251/2/6 252/2/6 257/2/6
f 257/2/6 252/2/6 258/2/6
f 253/3/6 254/3/6 260/3/6
f 260/3/6 254/3/6 261/3/6
f 255/3/6 256/3/6 262/3/6
f 256/2/6 257/2/6 263/2/6
f 262/3/6 256/3/6 263/3/6
f 263/2/6 257/2/6 264/2/6
f 258/2/6 259/2/6 265/2/6
f 265/2/6 259/2/6 266/2/6
f 261/3/6 262/3/6 267/3/6
f 267/3/6 262/3/6 268/3/6
f 264/2/6 265/2/6 269/2/6
f 269/2/6 265/2/6 270/2/6
f 269/1/6 270/1/6 272/1/6
f 272/1/6 270/1/6 273/1/6
f 271/1/6 272/1/6 275/1/6
f 275/1/6 272/1/6 276/1/6
f 273/1/6 274/1/6 277/1/6
f 277/1/6 274/1/6 278/1/6
f 276/1/6 277/1/6 279/1/6
f 279/1/6 277/1/6 280/1/6
f 281/3/6 282/3/6 284/3/6
f 284/3/6 282/3/6 285/3/6
f 282/2/6 283/2/6 286/2/6
f 286/2/6 283/2/6 287/2/6
f 281/3/6 284/3/6 288/3/6
f 285/3/6 282/3/6 289/3/6
f 282/2/6 286/2/6 290/2/6
f 287/2/6 283/2/6 291/2/6
f 281/3/6 288/3/6 292/3/6
f 288/3/6 289/3/6 292/3/6
f 290/2/6 291/2/6 293/2/6
f 292/3/6 289/3/6 293/3/6
f 282/2/6 290/2/6 293/2/6
f 289/3/6 282/3/6 293/3/6
f 291/2/6 283/2/6 294/2/6
f 293/2/6 291/2/6 294/2/6
f 293/1/6 294/1/6 295/1/6
f 295/1/6 294/1/6 296/1/6
f 293/1/6 295/1/6 297/1/6
f 296/1/6 294/1/6 298/1/6
f 293/1/6 297/1/6 299/1/6
f 297/1/6 298/1/6 299/1/6
f 298/1/6 294/1/6 300/1/6
f 299/1/6 298/1/6 300/1/6
