# MagicaVoxel @ Ephtracy

# group
o 

# material
mtllib bus-stop.mtl
usemtl palette

# normals
vn -1 0 0
vn 1 0 0
vn 0 0 1
vn 0 0 -1
vn 0 -1 0
vn 0 1 0

# texcoords
vt 0.478516 0.5
vt 0.490234 0.5
vt 0.630859 0.5

# verts
v 0.5 4 -0.4
v 0.5 4 -0.6
v 0.5 4.4 -0.4
v 0.5 4.4 -0.6
v 0.6 3.9 -0.4
v 0.6 3.9 -0.6
v 0.6 4 -0.4
v 0.6 4 -0.6
v 0.6 4.4 -0.4
v 0.6 4.4 -0.6
v 0.6 4.5 -0.4
v 0.6 4.5 -0.6
v 0.7 3.8 -0.4
v 0.7 3.8 -0.6
v 0.7 3.9 -0.4
v 0.7 3.9 -0.6
v 0.7 4.5 -0.4
v 0.7 4.5 -0.6
v 0.7 4.6 -0.4
v 0.7 4.6 -0.6
v 0.8 2 -0.4
v 0.8 2 -0.6
v 0.8 3.8 -0.4
v 0.8 3.8 -0.6
v 1.1 4.4 -4.6
v 1.1 4.4 -5.6
v 1.1 4.8 -4.6
v 1.1 4.8 -5.6
v 1.2 4.4 -4.1
v 1.2 4.4 -4.6
v 1.2 4.4 -5.6
v 1.2 4.4 -6.1
v 1.2 4.8 -4.1
v 1.2 4.8 -4.6
v 1.2 4.8 -5.6
v 1.2 4.8 -6.1
v 1.3 4.4 -3.6
v 1.3 4.4 -4.1
v 1.3 4.4 -6.1
v 1.3 4.4 -6.6
v 1.3 4.8 -3.6
v 1.3 4.8 -4.1
v 1.3 4.8 -6.1
v 1.3 4.8 -6.6
v 1.4 4.4 -3.1
v 1.4 4.4 -3.6
v 1.4 4.4 -6.6
v 1.4 4.4 -7.1
v 1.4 4.8 -3.1
v 1.4 4.8 -3.6
v 1.4 4.8 -6.6
v 1.4 4.8 -7.1
v 1.5 4.4 -2.6
v 1.5 4.4 -3.1
v 1.5 4.4 -7.1
v 1.5 4.4 -7.6
v 1.5 4.8 -2.6
v 1.5 4.8 -3.1
v 1.5 4.8 -7.1
v 1.5 4.8 -7.6
v 1.6 4.4 -2.1
v 1.6 4.4 -2.6
v 1.6 4.4 -7.6
v 1.6 4.4 -8.1
v 1.6 4.8 -2.1
v 1.6 4.8 -2.6
v 1.6 4.8 -7.6
v 1.6 4.8 -8.1
v 1.7 2 -2.3
v 1.7 2 -2.7
v 1.7 2 -7.9
v 1.7 2 -8.3
v 1.7 4.4 -1.6
v 1.7 4.4 -2.1
v 1.7 4.4 -2.3
v 1.7 4.4 -2.7
v 1.7 4.4 -7.9
v 1.7 4.4 -8.1
v 1.7 4.4 -8.3
v 1.7 4.4 -8.6
v 1.7 4.8 -1.6
v 1.7 4.8 -2.1
v 1.7 4.8 -8.1
v 1.7 4.8 -8.6
v 1.8 4.4 -1.1
v 1.8 4.4 -1.6
v 1.8 4.4 -8.6
v 1.8 4.4 -9.1
v 1.8 4.8 -1.1
v 1.8 4.8 -1.6
v 1.8 4.8 -8.6
v 1.8 4.8 -9.1
v 4.3 2 -2.3
v 4.3 2 -2.7
v 4.3 2 -7.9
v 4.3 2 -8.3
v 4.3 4.4 -2.3
v 4.3 4.4 -2.7
v 4.3 4.4 -7.9
v 4.3 4.4 -8.3
v 1 2 -0.4
v 1 2 -0.6
v 1 3.8 -0.4
v 1 3.8 -0.6
v 1.1 3.8 -0.4
v 1.1 3.8 -0.6
v 1.1 3.9 -0.4
v 1.1 3.9 -0.6
v 1.1 4.5 -0.4
v 1.1 4.5 -0.6
v 1.1 4.6 -0.4
v 1.1 4.6 -0.6
v 1.2 3.9 -0.4
v 1.2 3.9 -0.6
v 1.2 4 -0.4
v 1.2 4 -0.6
v 1.2 4.4 -0.4
v 1.2 4.4 -0.6
v 1.2 4.5 -0.4
v 1.2 4.5 -0.6
v 1.3 4 -0.4
v 1.3 4 -0.6
v 1.3 4.4 -0.4
v 1.3 4.4 -0.6
v 2.1 2 -2.3
v 2.1 2 -2.7
v 2.1 2 -7.9
v 2.1 2 -8.3
v 2.1 4.4 -2.3
v 2.1 4.4 -2.7
v 2.1 4.4 -7.9
v 2.1 4.4 -8.3
v 4.3 4.4 -4.6
v 4.3 4.4 -5.6
v 4.3 4.8 -4.6
v 4.3 4.8 -5.6
v 4.4 4.4 -4.1
v 4.4 4.4 -4.6
v 4.4 4.4 -5.6
v 4.4 4.4 -6.1
v 4.4 4.8 -4.1
v 4.4 4.8 -4.6
v 4.4 4.8 -5.6
v 4.4 4.8 -6.1
v 4.5 4.4 -3.6
v 4.5 4.4 -4.1
v 4.5 4.4 -6.1
v 4.5 4.4 -6.6
v 4.5 4.8 -3.6
v 4.5 4.8 -4.1
v 4.5 4.8 -6.1
v 4.5 4.8 -6.6
v 4.6 4.4 -3.1
v 4.6 4.4 -3.6
v 4.6 4.4 -6.6
v 4.6 4.4 -7.1
v 4.6 4.8 -3.1
v 4.6 4.8 -3.6
v 4.6 4.8 -6.6
v 4.6 4.8 -7.1
v 4.7 2 -2.3
v 4.7 2 -2.7
v 4.7 2 -7.9
v 4.7 2 -8.3
v 4.7 4.4 -2.3
v 4.7 4.4 -2.6
v 4.7 4.4 -2.7
v 4.7 4.4 -3.1
v 4.7 4.4 -7.1
v 4.7 4.4 -7.6
v 4.7 4.4 -7.9
v 4.7 4.4 -8.3
v 4.7 4.8 -2.6
v 4.7 4.8 -3.1
v 4.7 4.8 -7.1
v 4.7 4.8 -7.6
v 4.8 4.4 -2.1
v 4.8 4.4 -2.6
v 4.8 4.4 -7.6
v 4.8 4.4 -8.1
v 4.8 4.8 -2.1
v 4.8 4.8 -2.6
v 4.8 4.8 -7.6
v 4.8 4.8 -8.1
v 4.9 4.4 -1.6
v 4.9 4.4 -2.1
v 4.9 4.4 -8.1
v 4.9 4.4 -8.6
v 4.9 4.8 -1.6
v 4.9 4.8 -2.1
v 4.9 4.8 -8.1
v 4.9 4.8 -8.6
v 5 4.4 -1.1
v 5 4.4 -1.6
v 5 4.4 -8.6
v 5 4.4 -9.1
v 5 4.8 -1.1
v 5 4.8 -1.6
v 5 4.8 -8.6
v 5 4.8 -9.1
v 0.5 4 -0.4
v 0.5 4.4 -0.4
v 0.6 3.9 -0.4
v 0.6 4 -0.4
v 0.6 4.1 -0.4
v 0.6 4.3 -0.4
v 0.6 4.4 -0.4
v 0.6 4.5 -0.4
v 0.7 3.8 -0.4
v 0.7 3.9 -0.4
v 0.7 4 -0.4
v 0.7 4.1 -0.4
v 0.7 4.3 -0.4
v 0.7 4.4 -0.4
v 0.7 4.5 -0.4
v 0.7 4.6 -0.4
v 0.8 2 -0.4
v 0.8 3.8 -0.4
v 0.8 3.9 -0.4
v 0.8 4 -0.4
v 0.8 4.4 -0.4
v 0.8 4.5 -0.4
v 1 2 -0.4
v 1 3.8 -0.4
v 1 3.9 -0.4
v 1 4 -0.4
v 1 4.4 -0.4
v 1 4.5 -0.4
v 1.1 3.8 -0.4
v 1.1 3.9 -0.4
v 1.1 4 -0.4
v 1.1 4.1 -0.4
v 1.1 4.3 -0.4
v 1.1 4.4 -0.4
v 1.1 4.5 -0.4
v 1.1 4.6 -0.4
v 1.2 3.9 -0.4
v 1.2 4 -0.4
v 1.2 4.1 -0.4
v 1.2 4.3 -0.4
v 1.2 4.4 -0.4
v 1.2 4.5 -0.4
v 1.3 4 -0.4
v 1.3 4.4 -0.4
v 1.8 4.4 -1.1
v 1.8 4.8 -1.1
v 5 4.4 -1.1
v 5 4.8 -1.1
v 1.7 4.4 -1.6
v 1.7 4.8 -1.6
v 1.8 4.4 -1.6
v 1.8 4.8 -1.6
v 1.6 4.4 -2.1
v 1.6 4.8 -2.1
v 1.7 4.4 -2.1
v 1.7 4.8 -2.1
v 1.7 2 -2.3
v 1.7 4.4 -2.3
v 2.1 2 -2.3
v 2.1 4.4 -2.3
v 4.3 2 -2.3
v 4.3 4.4 -2.3
v 4.7 2 -2.3
v 4.7 4.4 -2.3
v 1.5 4.4 -2.6
v 1.5 4.8 -2.6
v 1.6 4.4 -2.6
v 1.6 4.8 -2.6
v 1.4 4.4 -3.1
v 1.4 4.8 -3.1
v 1.5 4.4 -3.1
v 1.5 4.8 -3.1
v 1.3 4.4 -3.6
v 1.3 4.8 -3.6
v 1.4 4.4 -3.6
v 1.4 4.8 -3.6
v 1.2 4.4 -4.1
v 1.2 4.8 -4.1
v 1.3 4.4 -4.1
v 1.3 4.8 -4.1
v 1.1 4.4 -4.6
v 1.1 4.8 -4.6
v 1.2 4.4 -4.6
v 1.2 4.8 -4.6
v 4.3 4.4 -5.6
v 4.3 4.8 -5.6
v 4.4 4.4 -5.6
v 4.4 4.8 -5.6
v 4.4 4.4 -6.1
v 4.4 4.8 -6.1
v 4.5 4.4 -6.1
v 4.5 4.8 -6.1
v 4.5 4.4 -6.6
v 4.5 4.8 -6.6
v 4.6 4.4 -6.6
v 4.6 4.8 -6.6
v 4.6 4.4 -7.1
v 4.6 4.8 -7.1
v 4.7 4.4 -7.1
v 4.7 4.8 -7.1
v 4.7 4.4 -7.6
v 4.7 4.8 -7.6
v 4.8 4.4 -7.6
v 4.8 4.8 -7.6
v 1.7 2 -7.9
v 1.7 4.4 -7.9
v 2.1 2 -7.9
v 2.1 4.4 -7.9
v 4.3 2 -7.9
v 4.3 4.4 -7.9
v 4.7 2 -7.9
v 4.7 4.4 -7.9
v 4.8 4.4 -8.1
v 4.8 4.8 -8.1
v 4.9 4.4 -8.1
v 4.9 4.8 -8.1
v 4.9 4.4 -8.6
v 4.9 4.8 -8.6
v 5 4.4 -8.6
v 5 4.8 -8.6
v 0.5 4 -0.6
v 0.5 4.4 -0.6
v 0.6 3.9 -0.6
v 0.6 4 -0.6
v 0.6 4.1 -0.6
v 0.6 4.3 -0.6
v 0.6 4.4 -0.6
v 0.6 4.5 -0.6
v 0.7 3.8 -0.6
v 0.7 3.9 -0.6
v 0.7 4 -0.6
v 0.7 4.1 -0.6
v 0.7 4.3 -0.6
v 0.7 4.4 -0.6
v 0.7 4.5 -0.6
v 0.7 4.6 -0.6
v 0.8 2 -0.6
v 0.8 3.8 -0.6
v 0.8 3.9 -0.6
v 0.8 4 -0.6
v 0.8 4.4 -0.6
v 0.8 4.5 -0.6
v 1 2 -0.6
v 1 3.8 -0.6
v 1 3.9 -0.6
v 1 4 -0.6
v 1 4.4 -0.6
v 1 4.5 -0.6
v 1.1 3.8 -0.6
v 1.1 3.9 -0.6
v 1.1 4 -0.6
v 1.1 4.1 -0.6
v 1.1 4.3 -0.6
v 1.1 4.4 -0.6
v 1.1 4.5 -0.6
v 1.1 4.6 -0.6
v 1.2 3.9 -0.6
v 1.2 4 -0.6
v 1.2 4.1 -0.6
v 1.2 4.3 -0.6
v 1.2 4.4 -0.6
v 1.2 4.5 -0.6
v 1.3 4 -0.6
v 1.3 4.4 -0.6
v 4.9 4.4 -1.6
v 4.9 4.8 -1.6
v 5 4.4 -1.6
v 5 4.8 -1.6
v 4.8 4.4 -2.1
v 4.8 4.8 -2.1
v 4.9 4.4 -2.1
v 4.9 4.8 -2.1
v 4.7 4.4 -2.6
v 4.7 4.8 -2.6
v 4.8 4.4 -2.6
v 4.8 4.8 -2.6
v 1.7 2 -2.7
v 1.7 4.4 -2.7
v 2.1 2 -2.7
v 2.1 4.4 -2.7
v 4.3 2 -2.7
v 4.3 4.4 -2.7
v 4.7 2 -2.7
v 4.7 4.4 -2.7
v 4.6 4.4 -3.1
v 4.6 4.8 -3.1
v 4.7 4.4 -3.1
v 4.7 4.8 -3.1
v 4.5 4.4 -3.6
v 4.5 4.8 -3.6
v 4.6 4.4 -3.6
v 4.6 4.8 -3.6
v 4.4 4.4 -4.1
v 4.4 4.8 -4.1
v 4.5 4.4 -4.1
v 4.5 4.8 -4.1
v 4.3 4.4 -4.6
v 4.3 4.8 -4.6
v 4.4 4.4 -4.6
v 4.4 4.8 -4.6
v 1.1 4.4 -5.6
v 1.1 4.8 -5.6
v 1.2 4.4 -5.6
v 1.2 4.8 -5.6
v 1.2 4.4 -6.1
v 1.2 4.8 -6.1
v 1.3 4.4 -6.1
v 1.3 4.8 -6.1
v 1.3 4.4 -6.6
v 1.3 4.8 -6.6
v 1.4 4.4 -6.6
v 1.4 4.8 -6.6
v 1.4 4.4 -7.1
v 1.4 4.8 -7.1
v 1.5 4.4 -7.1
v 1.5 4.8 -7.1
v 1.5 4.4 -7.6
v 1.5 4.8 -7.6
v 1.6 4.4 -7.6
v 1.6 4.8 -7.6
v 1.6 4.4 -8.1
v 1.6 4.8 -8.1
v 1.7 4.4 -8.1
v 1.7 4.8 -8.1
v 1.7 2 -8.3
v 1.7 4.4 -8.3
v 2.1 2 -8.3
v 2.1 4.4 -8.3
v 4.3 2 -8.3
v 4.3 4.4 -8.3
v 4.7 2 -8.3
v 4.7 4.4 -8.3
v 1.7 4.4 -8.6
v 1.7 4.8 -8.6
v 1.8 4.4 -8.6
v 1.8 4.8 -8.6
v 1.8 4.4 -9.1
v 1.8 4.8 -9.1
v 5 4.4 -9.1
v 5 4.8 -9.1
v 0.8 2 -0.4
v 1 2 -0.4
v 0.8 2 -0.6
v 1 2 -0.6
v 1.7 2 -2.3
v 2.1 2 -2.3
v 4.3 2 -2.3
v 4.7 2 -2.3
v 1.7 2 -2.7
v 2.1 2 -2.7
v 4.3 2 -2.7
v 4.7 2 -2.7
v 1.7 2 -7.9
v 2.1 2 -7.9
v 4.3 2 -7.9
v 4.7 2 -7.9
v 1.7 2 -8.3
v 2.1 2 -8.3
v 4.3 2 -8.3
v 4.7 2 -8.3
v 0.7 3.8 -0.4
v 0.8 3.8 -0.4
v 1 3.8 -0.4
v 1.1 3.8 -0.4
v 0.7 3.8 -0.6
v 0.8 3.8 -0.6
v 1 3.8 -0.6
v 1.1 3.8 -0.6
v 0.6 3.9 -0.4
v 0.7 3.9 -0.4
v 1.1 3.9 -0.4
v 1.2 3.9 -0.4
v 0.6 3.9 -0.6
v 0.7 3.9 -0.6
v 1.1 3.9 -0.6
v 1.2 3.9 -0.6
v 0.5 4 -0.4
v 0.6 4 -0.4
v 1.2 4 -0.4
v 1.3 4 -0.4
v 0.5 4 -0.6
v 0.6 4 -0.6
v 1.2 4 -0.6
v 1.3 4 -0.6
v 1.8 4.4 -1.1
v 5 4.4 -1.1
v 1.7 4.4 -1.6
v 1.8 4.4 -1.6
v 4.9 4.4 -1.6
v 5 4.4 -1.6
v 1.6 4.4 -2.1
v 1.7 4.4 -2.1
v 4.8 4.4 -2.1
v 4.9 4.4 -2.1
v 1.7 4.4 -2.3
v 2.1 4.4 -2.3
v 4.3 4.4 -2.3
v 4.7 4.4 -2.3
v 1.5 4.4 -2.6
v 1.6 4.4 -2.6
v 4.7 4.4 -2.6
v 4.8 4.4 -2.6
v 1.7 4.4 -2.7
v 2.1 4.4 -2.7
v 4.3 4.4 -2.7
v 4.7 4.4 -2.7
v 1.4 4.4 -3.1
v 1.5 4.4 -3.1
v 4.6 4.4 -3.1
v 4.7 4.4 -3.1
v 1.3 4.4 -3.6
v 1.4 4.4 -3.6
v 4.5 4.4 -3.6
v 4.6 4.4 -3.6
v 1.2 4.4 -4.1
v 1.3 4.4 -4.1
v 4.4 4.4 -4.1
v 4.5 4.4 -4.1
v 1.1 4.4 -4.6
v 1.2 4.4 -4.6
v 4.3 4.4 -4.6
v 4.4 4.4 -4.6
v 1.1 4.4 -5.6
v 1.2 4.4 -5.6
v 4.3 4.4 -5.6
v 4.4 4.4 -5.6
v 1.2 4.4 -6.1
v 1.3 4.4 -6.1
v 4.4 4.4 -6.1
v 4.5 4.4 -6.1
v 1.3 4.4 -6.6
v 1.4 4.4 -6.6
v 4.5 4.4 -6.6
v 4.6 4.4 -6.6
v 1.4 4.4 -7.1
v 1.5 4.4 -7.1
v 4.6 4.4 -7.1
v 4.7 4.4 -7.1
v 1.5 4.4 -7.6
v 1.6 4.4 -7.6
v 4.7 4.4 -7.6
v 4.8 4.4 -7.6
v 1.7 4.4 -7.9
v 2.1 4.4 -7.9
v 4.3 4.4 -7.9
v 4.7 4.4 -7.9
v 1.6 4.4 -8.1
v 1.7 4.4 -8.1
v 4.8 4.4 -8.1
v 4.9 4.4 -8.1
v 1.7 4.4 -8.3
v 2.1 4.4 -8.3
v 4.3 4.4 -8.3
v 4.7 4.4 -8.3
v 1.7 4.4 -8.6
v 1.8 4.4 -8.6
v 4.9 4.4 -8.6
v 5 4.4 -8.6
v 1.8 4.4 -9.1
v 5 4.4 -9.1
v 0.5 4.4 -0.4
v 0.6 4.4 -0.4
v 1.2 4.4 -0.4
v 1.3 4.4 -0.4
v 0.5 4.4 -0.6
v 0.6 4.4 -0.6
v 1.2 4.4 -0.6
v 1.3 4.4 -0.6
v 0.6 4.5 -0.4
v 0.7 4.5 -0.4
v 1.1 4.5 -0.4
v 1.2 4.5 -0.4
v 0.6 4.5 -0.6
v 0.7 4.5 -0.6
v 1.1 4.5 -0.6
v 1.2 4.5 -0.6
v 0.7 4.6 -0.4
v 1.1 4.6 -0.4
v 0.7 4.6 -0.6
v 1.1 4.6 -0.6
v 1.8 4.8 -1.1
v 5 4.8 -1.1
v 1.7 4.8 -1.6
v 1.8 4.8 -1.6
v 4.9 4.8 -1.6
v 5 4.8 -1.6
v 1.6 4.8 -2.1
v 1.7 4.8 -2.1
v 4.8 4.8 -2.1
v 4.9 4.8 -2.1
v 1.5 4.8 -2.6
v 1.6 4.8 -2.6
v 4.7 4.8 -2.6
v 4.8 4.8 -2.6
v 1.4 4.8 -3.1
v 1.5 4.8 -3.1
v 4.6 4.8 -3.1
v 4.7 4.8 -3.1
v 1.3 4.8 -3.6
v 1.4 4.8 -3.6
v 4.5 4.8 -3.6
v 4.6 4.8 -3.6
v 1.2 4.8 -4.1
v 1.3 4.8 -4.1
v 4.4 4.8 -4.1
v 4.5 4.8 -4.1
v 1.1 4.8 -4.6
v 1.2 4.8 -4.6
v 4.3 4.8 -4.6
v 4.4 4.8 -4.6
v 1.1 4.8 -5.6
v 1.2 4.8 -5.6
v 4.3 4.8 -5.6
v 4.4 4.8 -5.6
v 1.2 4.8 -6.1
v 1.3 4.8 -6.1
v 4.4 4.8 -6.1
v 4.5 4.8 -6.1
v 1.3 4.8 -6.6
v 1.4 4.8 -6.6
v 4.5 4.8 -6.6
v 4.6 4.8 -6.6
v 1.4 4.8 -7.1
v 1.5 4.8 -7.1
v 4.6 4.8 -7.1
v 4.7 4.8 -7.1
v 1.5 4.8 -7.6
v 1.6 4.8 -7.6
v 4.7 4.8 -7.6
v 4.8 4.8 -7.6
v 1.6 4.8 -8.1
v 1.7 4.8 -8.1
v 4.8 4.8 -8.1
v 4.9 4.8 -8.1
v 1.7 4.8 -8.6
v 1.8 4.8 -8.6
v 4.9 4.8 -8.6
v 5 4.8 -8.6
v 1.8 4.8 -9.1
v 5 4.8 -9.1

# faces
f 3/3/1 2/3/1 1/3/1
f 4/3/1 2/3/1 3/3/1
f 7/3/1 6/3/1 5/3/1
f 8/3/1 6/3/1 7/3/1
f 11/3/1 10/3/1 9/3/1
f 12/3/1 10/3/1 11/3/1
f 15/3/1 14/3/1 13/3/1
f 16/3/1 14/3/1 15/3/1
f 19/3/1 18/3/1 17/3/1
f 20/3/1 18/3/1 19/3/1
f 23/3/1 22/3/1 21/3/1
f 24/3/1 22/3/1 23/3/1
f 27/1/1 26/1/1 25/1/1
f 28/1/1 26/1/1 27/1/1
f 33/1/1 30/1/1 29/1/1
f 34/1/1 30/1/1 33/1/1
f 35/1/1 32/1/1 31/1/1
f 36/1/1 32/1/1 35/1/1
f 41/1/1 38/1/1 37/1/1
f 42/1/1 38/1/1 41/1/1
f 43/1/1 40/1/1 39/1/1
f 44/1/1 40/1/1 43/1/1
f 49/1/1 46/1/1 45/1/1
f 50/1/1 46/1/1 49/1/1
f 51/1/1 48/1/1 47/1/1
f 52/1/1 48/1/1 51/1/1
f 57/1/1 54/1/1 53/1/1
f 58/1/1 54/1/1 57/1/1
f 59/1/1 56/1/1 55/1/1
f 60/1/1 56/1/1 59/1/1
f 65/1/1 62/1/1 61/1/1
f 66/1/1 62/1/1 65/1/1
f 67/1/1 64/1/1 63/1/1
f 68/1/1 64/1/1 67/1/1
f 75/1/1 70/1/1 69/1/1
f 76/1/1 70/1/1 75/1/1
f 77/1/1 72/1/1 71/1/1
f 78/1/1 72/1/1 77/1/1
f 79/1/1 72/1/1 78/1/1
f 81/1/1 74/1/1 73/1/1
f 82/1/1 74/1/1 81/1/1
f 83/1/1 80/1/1 79/1/1
f 83/1/1 79/1/1 78/1/1
f 84/1/1 80/1/1 83/1/1
f 89/1/1 86/1/1 85/1/1
f 90/1/1 86/1/1 89/1/1
f 91/1/1 88/1/1 87/1/1
f 92/1/1 88/1/1 91/1/1
f 97/1/1 94/1/1 93/1/1
f 98/1/1 94/1/1 97/1/1
f 99/1/1 96/1/1 95/1/1
f 100/1/1 96/1/1 99/1/1
f 101/3/2 102/3/2 103/3/2
f 103/3/2 102/3/2 104/3/2
f 105/3/2 106/3/2 107/3/2
f 107/3/2 106/3/2 108/3/2
f 109/3/2 110/3/2 111/3/2
f 111/3/2 110/3/2 112/3/2
f 113/3/2 114/3/2 115/3/2
f 115/3/2 114/3/2 116/3/2
f 117/3/2 118/3/2 119/3/2
f 119/3/2 118/3/2 120/3/2
f 121/3/2 122/3/2 123/3/2
f 123/3/2 122/3/2 124/3/2
f 125/1/2 126/1/2 129/1/2
f 129/1/2 126/1/2 130/1/2
f 127/1/2 128/1/2 131/1/2
f 131/1/2 128/1/2 132/1/2
f 133/1/2 134/1/2 135/1/2
f 135/1/2 134/1/2 136/1/2
f 137/1/2 138/1/2 141/1/2
f 141/1/2 138/1/2 142/1/2
f 139/1/2 140/1/2 143/1/2
f 143/1/2 140/1/2 144/1/2
f 145/1/2 146/1/2 149/1/2
f 149/1/2 146/1/2 150/1/2
f 147/1/2 148/1/2 151/1/2
f 151/1/2 148/1/2 152/1/2
f 153/1/2 154/1/2 157/1/2
f 157/1/2 154/1/2 158/1/2
f 155/1/2 156/1/2 159/1/2
f 159/1/2 156/1/2 160/1/2
f 161/1/2 162/1/2 165/1/2
f 165/1/2 162/1/2 166/1/2
f 166/1/2 162/1/2 167/1/2
f 163/1/2 164/1/2 171/1/2
f 171/1/2 164/1/2 172/1/2
f 166/1/2 167/1/2 173/1/2
f 167/1/2 168/1/2 173/1/2
f 173/1/2 168/1/2 174/1/2
f 169/1/2 170/1/2 175/1/2
f 175/1/2 170/1/2 176/1/2
f 177/1/2 178/1/2 181/1/2
f 181/1/2 178/1/2 182/1/2
f 179/1/2 180/1/2 183/1/2
f 183/1/2 180/1/2 184/1/2
f 185/1/2 186/1/2 189/1/2
f 189/1/2 186/1/2 190/1/2
f 187/1/2 188/1/2 191/1/2
f 191/1/2 188/1/2 192/1/2
f 193/1/2 194/1/2 197/1/2
f 197/1/2 194/1/2 198/1/2
f 195/1/2 196/1/2 199/1/2
f 199/1/2 196/1/2 200/1/2
f 204/3/3 202/3/3 201/3/3
f 205/3/3 202/3/3 204/3/3
f 206/3/3 202/3/3 205/3/3
f 207/3/3 202/3/3 206/3/3
f 210/3/3 204/3/3 203/3/3
f 210/3/3 205/3/3 204/3/3
f 211/3/3 205/3/3 210/3/3
f 212/2/3 206/2/3 205/2/3
f 212/3/3 205/3/3 211/3/3
f 213/3/3 208/3/3 207/3/3
f 213/2/3 206/2/3 212/2/3
f 213/3/3 207/3/3 206/3/3
f 214/3/3 208/3/3 213/3/3
f 215/3/3 208/3/3 214/3/3
f 218/3/3 210/3/3 209/3/3
f 218/3/3 211/3/3 210/3/3
f 219/3/3 211/3/3 218/3/3
f 220/2/3 212/2/3 211/2/3
f 220/3/3 211/3/3 219/3/3
f 220/2/3 213/2/3 212/2/3
f 220/2/3 214/2/3 213/2/3
f 221/3/3 216/3/3 215/3/3
f 221/2/3 214/2/3 220/2/3
f 221/3/3 215/3/3 214/3/3
f 222/3/3 216/3/3 221/3/3
f 223/3/3 219/3/3 218/3/3
f 223/3/3 218/3/3 217/3/3
f 224/3/3 219/3/3 223/3/3
f 225/2/3 220/2/3 219/2/3
f 225/3/3 219/3/3 224/3/3
f 225/2/3 222/2/3 221/2/3
f 225/2/3 221/2/3 220/2/3
f 226/2/3 222/2/3 225/2/3
f 227/2/3 222/2/3 226/2/3
f 228/3/3 216/3/3 222/3/3
f 228/2/3 222/2/3 227/2/3
f 229/3/3 225/3/3 224/3/3
f 229/3/3 226/3/3 225/3/3
f 230/3/3 226/3/3 229/3/3
f 231/2/3 227/2/3 226/2/3
f 231/3/3 226/3/3 230/3/3
f 232/2/3 227/2/3 231/2/3
f 233/2/3 227/2/3 232/2/3
f 234/3/3 228/3/3 227/3/3
f 234/2/3 227/2/3 233/2/3
f 235/3/3 216/3/3 228/3/3
f 235/3/3 228/3/3 234/3/3
f 236/3/3 216/3/3 235/3/3
f 237/3/3 231/3/3 230/3/3
f 237/3/3 232/3/3 231/3/3
f 238/3/3 232/3/3 237/3/3
f 239/2/3 233/2/3 232/2/3
f 239/3/3 232/3/3 238/3/3
f 240/3/3 234/3/3 233/3/3
f 240/2/3 233/2/3 239/2/3
f 240/3/3 235/3/3 234/3/3
f 241/3/3 235/3/3 240/3/3
f 242/3/3 235/3/3 241/3/3
f 243/3/3 239/3/3 238/3/3
f 243/3/3 241/3/3 240/3/3
f 243/3/3 240/3/3 239/3/3
f 244/3/3 241/3/3 243/3/3
f 247/1/3 246/1/3 245/1/3
f 248/1/3 246/1/3 247/1/3
f 251/1/3 250/1/3 249/1/3
f 252/1/3 250/1/3 251/1/3
f 255/1/3 254/1/3 253/1/3
f 256/1/3 254/1/3 255/1/3
f 259/1/3 258/1/3 257/1/3
f 260/1/3 258/1/3 259/1/3
f 263/1/3 262/1/3 261/1/3
f 264/1/3 262/1/3 263/1/3
f 267/1/3 266/1/3 265/1/3
f 268/1/3 266/1/3 267/1/3
f 271/1/3 270/1/3 269/1/3
f 272/1/3 270/1/3 271/1/3
f 275/1/3 274/1/3 273/1/3
f 276/1/3 274/1/3 275/1/3
f 279/1/3 278/1/3 277/1/3
f 280/1/3 278/1/3 279/1/3
f 283/1/3 282/1/3 281/1/3
f 284/1/3 282/1/3 283/1/3
f 287/1/3 286/1/3 285/1/3
f 288/1/3 286/1/3 287/1/3
f 291/1/3 290/1/3 289/1/3
f 292/1/3 290/1/3 291/1/3
f 295/1/3 294/1/3 293/1/3
f 296/1/3 294/1/3 295/1/3
f 299/1/3 298/1/3 297/1/3
f 300/1/3 298/1/3 299/1/3
f 303/1/3 302/1/3 301/1/3
f 304/1/3 302/1/3 303/1/3
f 307/1/3 306/1/3 305/1/3
f 308/1/3 306/1/3 307/1/3
f 311/1/3 310/1/3 309/1/3
f 312/1/3 310/1/3 311/1/3
f 315/1/3 314/1/3 313/1/3
f 316/1/3 314/1/3 315/1/3
f 319/1/3 318/1/3 317/1/3
f 320/1/3 318/1/3 319/1/3
f 321/3/4 322/3/4 324/3/4
f 324/3/4 322/3/4 325/3/4
f 325/3/4 322/3/4 326/3/4
f 326/3/4 322/3/4 327/3/4
f 323/3/4 324/3/4 330/3/4
f 324/3/4 325/3/4 330/3/4
f 330/3/4 325/3/4 331/3/4
f 325/2/4 326/2/4 332/2/4
f 331/3/4 325/3/4 332/3/4
f 327/3/4 328/3/4 333/3/4
f 332/2/4 326/2/4 333/2/4
f 326/3/4 327/3/4 333/3/4
f 333/3/4 328/3/4 334/3/4
f 334/3/4 328/3/4 335/3/4
f 329/3/4 330/3/4 338/3/4
f 330/3/4 331/3/4 338/3/4
f 338/3/4 331/3/4 339/3/4
f 331/2/4 332/2/4 340/2/4
f 339/3/4 331/3/4 340/3/4
f 332/2/4 333/2/4 340/2/4
f 333/2/4 334/2/4 340/2/4
f 335/3/4 336/3/4 341/3/4
f 340/2/4 334/2/4 341/2/4
f 334/3/4 335/3/4 341/3/4
f 341/3/4 336/3/4 342/3/4
f 338/3/4 339/3/4 343/3/4
f 337/3/4 338/3/4 343/3/4
f 343/3/4 339/3/4 344/3/4
f 339/2/4 340/2/4 345/2/4
f 344/3/4 339/3/4 345/3/4
f 341/2/4 342/2/4 345/2/4
f 340/2/4 341/2/4 345/2/4
f 345/2/4 342/2/4 346/2/4
f 346/2/4 342/2/4 347/2/4
f 342/3/4 336/3/4 348/3/4
f 347/2/4 342/2/4 348/2/4
f 344/3/4 345/3/4 349/3/4
f 345/3/4 346/3/4 349/3/4
f 349/3/4 346/3/4 350/3/4
f 346/2/4 347/2/4 351/2/4
f 350/3/4 346/3/4 351/3/4
f 351/2/4 347/2/4 352/2/4
f 352/2/4 347/2/4 353/2/4
f 347/3/4 348/3/4 354/3/4
f 353/2/4 347/2/4 354/2/4
f 348/3/4 336/3/4 355/3/4
f 354/3/4 348/3/4 355/3/4
f 355/3/4 336/3/4 356/3/4
f 350/3/4 351/3/4 357/3/4
f 351/3/4 352/3/4 357/3/4
f 357/3/4 352/3/4 358/3/4
f 352/2/4 353/2/4 359/2/4
f 358/3/4 352/3/4 359/3/4
f 353/3/4 354/3/4 360/3/4
f 359/2/4 353/2/4 360/2/4
f 354/3/4 355/3/4 360/3/4
f 360/3/4 355/3/4 361/3/4
f 361/3/4 355/3/4 362/3/4
f 358/3/4 359/3/4 363/3/4
f 360/3/4 361/3/4 363/3/4
f 359/3/4 360/3/4 363/3/4
f 363/3/4 361/3/4 364/3/4
f 365/1/4 366/1/4 367/1/4
f 367/1/4 366/1/4 368/1/4
f 369/1/4 370/1/4 371/1/4
f 371/1/4 370/1/4 372/1/4
f 373/1/4 374/1/4 375/1/4
f 375/1/4 374/1/4 376/1/4
f 377/1/4 378/1/4 379/1/4
f 379/1/4 378/1/4 380/1/4
f 381/1/4 382/1/4 383/1/4
f 383/1/4 382/1/4 384/1/4
f 385/1/4 386/1/4 387/1/4
f 387/1/4 386/1/4 388/1/4
f 389/1/4 390/1/4 391/1/4
f 391/1/4 390/1/4 392/1/4
f 393/1/4 394/1/4 395/1/4
f 395/1/4 394/1/4 396/1/4
f 397/1/4 398/1/4 399/1/4
f 399/1/4 398/1/4 400/1/4
f 401/1/4 402/1/4 403/1/4
f 403/1/4 402/1/4 404/1/4
f 405/1/4 406/1/4 407/1/4
f 407/1/4 406/1/4 408/1/4
f 409/1/4 410/1/4 411/1/4
f 411/1/4 410/1/4 412/1/4
f 413/1/4 414/1/4 415/1/4
f 415/1/4 414/1/4 416/1/4
f 417/1/4 418/1/4 419/1/4
f 419/1/4 418/1/4 420/1/4
f 421/1/4 422/1/4 423/1/4
f 423/1/4 422/1/4 424/1/4
f 425/1/4 426/1/4 427/1/4
f 427/1/4 426/1/4 428/1/4
f 429/1/4 430/1/4 431/1/4
f 431/1/4 430/1/4 432/1/4
f 433/1/4 434/1/4 435/1/4
f 435/1/4 434/1/4 436/1/4
f 437/1/4 438/1/4 439/1/4
f 439/1/4 438/1/4 440/1/4
f 443/3/5 442/3/5 441/3/5
f 444/3/5 442/3/5 443/3/5
f 449/1/5 446/1/5 445/1/5
f 450/1/5 446/1/5 449/1/5
f 451/1/5 448/1/5 447/1/5
f 452/1/5 448/1/5 451/1/5
f 457/1/5 454/1/5 453/1/5
f 458/1/5 454/1/5 457/1/5
f 459/1/5 456/1/5 455/1/5
f 460/1/5 456/1/5 459/1/5
f 465/3/5 462/3/5 461/3/5
f 466/3/5 462/3/5 465/3/5
f 467/3/5 464/3/5 463/3/5
f 468/3/5 464/3/5 467/3/5
f 473/3/5 470/3/5 469/3/5
f 474/3/5 470/3/5 473/3/5
f 475/3/5 472/3/5 471/3/5
f 476/3/5 472/3/5 475/3/5
f 481/3/5 478/3/5 477/3/5
f 482/3/5 478/3/5 481/3/5
f 483/3/5 480/3/5 479/3/5
f 484/3/5 480/3/5 483/3/5
f 488/1/5 486/1/5 485/1/5
f 489/1/5 486/1/5 488/1/5
f 490/1/5 486/1/5 489/1/5
f 492/1/5 488/1/5 487/1/5
f 492/1/5 489/1/5 488/1/5
f 493/1/5 489/1/5 492/1/5
f 494/1/5 489/1/5 493/1/5
f 495/1/5 492/1/5 491/1/5
f 495/1/5 493/1/5 492/1/5
f 496/1/5 493/1/5 495/1/5
f 497/1/5 493/1/5 496/1/5
f 498/1/5 493/1/5 497/1/5
f 500/1/5 495/1/5 491/1/5
f 501/1/5 493/1/5 498/1/5
f 502/1/5 493/1/5 501/1/5
f 503/1/5 500/1/5 499/1/5
f 503/1/5 495/1/5 500/1/5
f 504/1/5 497/1/5 496/1/5
f 505/1/5 497/1/5 504/1/5
f 508/1/5 503/1/5 499/1/5
f 508/1/5 506/1/5 505/1/5
f 508/1/5 505/1/5 504/1/5
f 508/1/5 504/1/5 503/1/5
f 509/1/5 506/1/5 508/1/5
f 510/1/5 506/1/5 509/1/5
f 512/1/5 508/1/5 507/1/5
f 512/1/5 509/1/5 508/1/5
f 513/1/5 509/1/5 512/1/5
f 514/1/5 509/1/5 513/1/5
f 516/1/5 512/1/5 511/1/5
f 516/1/5 513/1/5 512/1/5
f 517/1/5 513/1/5 516/1/5
f 518/1/5 513/1/5 517/1/5
f 520/1/5 516/1/5 515/1/5
f 520/1/5 517/1/5 516/1/5
f 521/1/5 517/1/5 520/1/5
f 522/1/5 517/1/5 521/1/5
f 523/1/5 520/1/5 519/1/5
f 523/1/5 521/1/5 520/1/5
f 524/1/5 521/1/5 523/1/5
f 525/1/5 521/1/5 524/1/5
f 527/1/5 526/1/5 525/1/5
f 527/1/5 525/1/5 524/1/5
f 528/1/5 526/1/5 527/1/5
f 529/1/5 526/1/5 528/1/5
f 531/1/5 529/1/5 528/1/5
f 531/1/5 530/1/5 529/1/5
f 532/1/5 530/1/5 531/1/5
f 533/1/5 530/1/5 532/1/5
f 535/1/5 533/1/5 532/1/5
f 535/1/5 534/1/5 533/1/5
f 536/1/5 534/1/5 535/1/5
f 537/1/5 534/1/5 536/1/5
f 539/1/5 537/1/5 536/1/5
f 539/1/5 538/1/5 537/1/5
f 540/1/5 538/1/5 539/1/5
f 541/1/5 538/1/5 540/1/5
f 543/1/5 541/1/5 540/1/5
f 543/1/5 542/1/5 541/1/5
f 544/1/5 542/1/5 543/1/5
f 545/1/5 542/1/5 544/1/5
f 546/1/5 542/1/5 545/1/5
f 547/1/5 543/1/5 540/1/5
f 548/1/5 543/1/5 547/1/5
f 549/1/5 542/1/5 546/1/5
f 552/1/5 545/1/5 544/1/5
f 553/1/5 545/1/5 552/1/5
f 554/1/5 549/1/5 546/1/5
f 554/1/5 550/1/5 549/1/5
f 555/1/5 553/1/5 552/1/5
f 555/1/5 554/1/5 553/1/5
f 555/1/5 552/1/5 551/1/5
f 556/1/5 554/1/5 555/1/5
f 557/1/5 550/1/5 554/1/5
f 557/1/5 554/1/5 556/1/5
f 559/1/5 557/1/5 556/1/5
f 559/1/5 558/1/5 557/1/5
f 560/1/5 558/1/5 559/1/5
f 561/3/6 562/3/6 565/3/6
f 565/3/6 562/3/6 566/3/6
f 563/3/6 564/3/6 567/3/6
f 567/3/6 564/3/6 568/3/6
f 569/3/6 570/3/6 573/3/6
f 573/3/6 570/3/6 574/3/6
f 571/3/6 572/3/6 575/3/6
f 575/3/6 572/3/6 576/3/6
f 577/3/6 578/3/6 579/3/6
f 579/3/6 578/3/6 580/3/6
f 581/1/6 582/1/6 584/1/6
f 584/1/6 582/1/6 585/1/6
f 585/1/6 582/1/6 586/1/6
f 583/1/6 584/1/6 588/1/6
f 584/1/6 585/1/6 588/1/6
f 588/1/6 585/1/6 589/1/6
f 589/1/6 585/1/6 590/1/6
f 587/1/6 588/1/6 592/1/6
f 588/1/6 589/1/6 592/1/6
f 592/1/6 589/1/6 593/1/6
f 593/1/6 589/1/6 594/1/6
f 591/1/6 592/1/6 596/1/6
f 592/1/6 593/1/6 596/1/6
f 596/1/6 593/1/6 597/1/6
f 597/1/6 593/1/6 598/1/6
f 595/1/6 596/1/6 600/1/6
f 596/1/6 597/1/6 600/1/6
f 600/1/6 597/1/6 601/1/6
f 601/1/6 597/1/6 602/1/6
f 599/1/6 600/1/6 604/1/6
f 600/1/6 601/1/6 604/1/6
f 604/1/6 601/1/6 605/1/6
f 605/1/6 601/1/6 606/1/6
f 603/1/6 604/1/6 608/1/6
f 604/1/6 605/1/6 608/1/6
f 608/1/6 605/1/6 609/1/6
f 609/1/6 605/1/6 610/1/6
f 607/1/6 608/1/6 611/1/6
f 608/1/6 609/1/6 611/1/6
f 611/1/6 609/1/6 612/1/6
f 612/1/6 609/1/6 613/1/6
f 613/1/6 614/1/6 615/1/6
f 612/1/6 613/1/6 615/1/6
f 615/1/6 614/1/6 616/1/6
f 616/1/6 614/1/6 617/1/6
f 616/1/6 617/1/6 619/1/6
f 617/1/6 618/1/6 619/1/6
f 619/1/6 618/1/6 620/1/6
f 620/1/6 618/1/6 621/1/6
f 620/1/6 621/1/6 623/1/6
f 621/1/6 622/1/6 623/1/6
f 623/1/6 622/1/6 624/1/6
f 624/1/6 622/1/6 625/1/6
f 624/1/6 625/1/6 627/1/6
f 625/1/6 626/1/6 627/1/6
f 627/1/6 626/1/6 628/1/6
f 628/1/6 626/1/6 629/1/6
f 628/1/6 629/1/6 631/1/6
f 629/1/6 630/1/6 631/1/6
f 631/1/6 630/1/6 632/1/6
f 632/1/6 630/1/6 633/1/6
f 632/1/6 633/1/6 635/1/6
f 633/1/6 634/1/6 635/1/6
f 635/1/6 634/1/6 636/1/6
f 636/1/6 634/1/6 637/1/6
f 636/1/6 637/1/6 639/1/6
f 637/1/6 638/1/6 639/1/6
f 639/1/6 638/1/6 640/1/6
