# MagicaVoxel @ Ephtracy

# material
mtllib old-street-light.mtl
usemtl palette

# normals
vn -1 0 0
vn 1 0 0
vn 0 0 1
vn 0 0 -1
vn 0 -1 0
vn 0 1 0

# texcoords
vt 0.271484 0.5
vt 0.318359 0.5
vt 0.490234 0.5

# verts
v -1.5 0 1.5
v -1.5 0 -1.5
v -1.5 1 1.5
v -1.5 1 -1.5
v -1.5 15 0.5
v -1.5 15 -0.5
v -1.5 16 1.5
v -1.5 16 0.5
v -1.5 16 -0.5
v -1.5 16 -1.5
v -1.5 18 1.5
v -1.5 18 -1.5
v -1.5 19 1.5
v -1.5 19 -1.5
v -0.5 1 0.5
v -0.5 1 -0.5
v -0.5 15 1.5
v -0.5 15 0.5
v -0.5 15 -0.5
v -0.5 15 -1.5
v -0.5 16 1.5
v -0.5 16 0.5
v -0.5 16 -0.5
v -0.5 16 -1.5
v -0.5 19 0.5
v -0.5 19 -0.5
v -0.5 20 0.5
v -0.5 20 -0.5
v 0.5 1 0.5
v 0.5 1 -0.5
v 0.5 15 1.5
v 0.5 15 0.5
v 0.5 15 -0.5
v 0.5 15 -1.5
v 0.5 16 1.5
v 0.5 16 0.5
v 0.5 16 -0.5
v 0.5 16 -1.5
v 0.5 19 0.5
v 0.5 19 -0.5
v 0.5 20 0.5
v 0.5 20 -0.5
v 1.5 0 1.5
v 1.5 0 -1.5
v 1.5 1 1.5
v 1.5 1 -1.5
v 1.5 15 0.5
v 1.5 15 -0.5
v 1.5 16 1.5
v 1.5 16 0.5
v 1.5 16 -0.5
v 1.5 16 -1.5
v 1.5 18 1.5
v 1.5 18 -1.5
v 1.5 19 1.5
v 1.5 19 -1.5
v -1.5 0 1.5
v -1.5 1 1.5
v -1.5 16 1.5
v -1.5 18 1.5
v -1.5 19 1.5
v -0.5 15 1.5
v -0.5 16 1.5
v 0.5 15 1.5
v 0.5 16 1.5
v 1.5 0 1.5
v 1.5 1 1.5
v 1.5 16 1.5
v 1.5 18 1.5
v 1.5 19 1.5
v -1.5 15 0.5
v -1.5 16 0.5
v -0.5 1 0.5
v -0.5 15 0.5
v -0.5 16 0.5
v -0.5 19 0.5
v -0.5 20 0.5
v 0.5 1 0.5
v 0.5 15 0.5
v 0.5 16 0.5
v 0.5 19 0.5
v 0.5 20 0.5
v 1.5 15 0.5
v 1.5 16 0.5
v -1.5 15 -0.5
v -1.5 16 -0.5
v -0.5 1 -0.5
v -0.5 15 -0.5
v -0.5 16 -0.5
v -0.5 19 -0.5
v -0.5 20 -0.5
v 0.5 1 -0.5
v 0.5 15 -0.5
v 0.5 16 -0.5
v 0.5 19 -0.5
v 0.5 20 -0.5
v 1.5 15 -0.5
v 1.5 16 -0.5
v -1.5 0 -1.5
v -1.5 1 -1.5
v -1.5 16 -1.5
v -1.5 18 -1.5
v -1.5 19 -1.5
v -0.5 15 -1.5
v -0.5 16 -1.5
v 0.5 15 -1.5
v 0.5 16 -1.5
v 1.5 0 -1.5
v 1.5 1 -1.5
v 1.5 16 -1.5
v 1.5 18 -1.5
v 1.5 19 -1.5
v -1.5 0 1.5
v 1.5 0 1.5
v -1.5 0 -1.5
v 1.5 0 -1.5
v -0.5 15 1.5
v 0.5 15 1.5
v -1.5 15 0.5
v -0.5 15 0.5
v 0.5 15 0.5
v 1.5 15 0.5
v -1.5 15 -0.5
v -0.5 15 -0.5
v 0.5 15 -0.5
v 1.5 15 -0.5
v -0.5 15 -1.5
v 0.5 15 -1.5
v -1.5 16 1.5
v -0.5 16 1.5
v 0.5 16 1.5
v 1.5 16 1.5
v -1.5 16 0.5
v -0.5 16 0.5
v 0.5 16 0.5
v 1.5 16 0.5
v -1.5 16 -0.5
v -0.5 16 -0.5
v 0.5 16 -0.5
v 1.5 16 -0.5
v -1.5 16 -1.5
v -0.5 16 -1.5
v 0.5 16 -1.5
v 1.5 16 -1.5
v -1.5 1 1.5
v 1.5 1 1.5
v -0.5 1 0.5
v 0.5 1 0.5
v -0.5 1 -0.5
v 0.5 1 -0.5
v -1.5 1 -1.5
v 1.5 1 -1.5
v -1.5 19 1.5
v 1.5 19 1.5
v -0.5 19 0.5
v 0.5 19 0.5
v -0.5 19 -0.5
v 0.5 19 -0.5
v -1.5 19 -1.5
v 1.5 19 -1.5
v -0.5 20 0.5
v 0.5 20 0.5
v -0.5 20 -0.5
v 0.5 20 -0.5

# faces
f 3/2/1 2/2/1 1/2/1
f 4/2/1 2/2/1 3/2/1
f 8/1/1 6/1/1 5/1/1
f 9/1/1 6/1/1 8/1/1
f 11/3/1 8/3/1 7/3/1
f 11/3/1 10/3/1 9/3/1
f 11/3/1 9/3/1 8/3/1
f 12/3/1 10/3/1 11/3/1
f 13/1/1 12/1/1 11/1/1
f 14/1/1 12/1/1 13/1/1
f 18/2/1 16/2/1 15/2/1
f 19/2/1 16/2/1 18/2/1
f 21/1/1 18/1/1 17/1/1
f 22/1/1 18/1/1 21/1/1
f 23/1/1 20/1/1 19/1/1
f 24/1/1 20/1/1 23/1/1
f 27/1/1 26/1/1 25/1/1
f 28/1/1 26/1/1 27/1/1
f 29/2/2 30/2/2 32/2/2
f 32/2/2 30/2/2 33/2/2
f 31/1/2 32/1/2 35/1/2
f 35/1/2 32/1/2 36/1/2
f 33/1/2 34/1/2 37/1/2
f 37/1/2 34/1/2 38/1/2
f 39/1/2 40/1/2 41/1/2
f 41/1/2 40/1/2 42/1/2
f 43/2/2 44/2/2 45/2/2
f 45/2/2 44/2/2 46/2/2
f 47/1/2 48/1/2 50/1/2
f 50/1/2 48/1/2 51/1/2
f 49/3/2 50/3/2 53/3/2
f 51/3/2 52/3/2 53/3/2
f 50/3/2 51/3/2 53/3/2
f 53/3/2 52/3/2 54/3/2
f 53/1/2 54/1/2 55/1/2
f 55/1/2 54/1/2 56/1/2
f 63/3/3 60/3/3 59/3/3
f 64/1/3 63/1/3 62/1/3
f 65/3/3 60/3/3 63/3/3
f 65/1/3 63/1/3 64/1/3
f 66/2/3 58/2/3 57/2/3
f 67/2/3 58/2/3 66/2/3
f 68/3/3 60/3/3 65/3/3
f 69/1/3 61/1/3 60/1/3
f 69/3/3 60/3/3 68/3/3
f 70/1/3 61/1/3 69/1/3
f 74/1/3 72/1/3 71/1/3
f 75/1/3 72/1/3 74/1/3
f 78/2/3 74/2/3 73/2/3
f 79/2/3 74/2/3 78/2/3
f 81/1/3 77/1/3 76/1/3
f 82/1/3 77/1/3 81/1/3
f 83/1/3 80/1/3 79/1/3
f 84/1/3 80/1/3 83/1/3
f 85/1/4 86/1/4 88/1/4
f 88/1/4 86/1/4 89/1/4
f 87/2/4 88/2/4 92/2/4
f 92/2/4 88/2/4 93/2/4
f 90/1/4 91/1/4 95/1/4
f 95/1/4 91/1/4 96/1/4
f 93/1/4 94/1/4 97/1/4
f 97/1/4 94/1/4 98/1/4
f 101/3/4 102/3/4 105/3/4
f 104/1/4 105/1/4 106/1/4
f 105/3/4 102/3/4 107/3/4
f 106/1/4 105/1/4 107/1/4
f 99/2/4 100/2/4 108/2/4
f 108/2/4 100/2/4 109/2/4
f 107/3/4 102/3/4 110/3/4
f 102/1/4 103/1/4 111/1/4
f 110/3/4 102/3/4 111/3/4
f 111/1/4 103/1/4 112/1/4
f 115/2/5 114/2/5 113/2/5
f 116/2/5 114/2/5 115/2/5
f 120/1/5 118/1/5 117/1/5
f 121/1/5 118/1/5 120/1/5
f 123/1/5 120/1/5 119/1/5
f 124/1/5 120/1/5 123/1/5
f 125/1/5 122/1/5 121/1/5
f 126/1/5 122/1/5 125/1/5
f 127/1/5 125/1/5 124/1/5
f 128/1/5 125/1/5 127/1/5
f 133/3/5 130/3/5 129/3/5
f 134/3/5 130/3/5 133/3/5
f 135/3/5 132/3/5 131/3/5
f 136/3/5 132/3/5 135/3/5
f 141/3/5 138/3/5 137/3/5
f 142/3/5 138/3/5 141/3/5
f 143/3/5 140/3/5 139/3/5
f 144/3/5 140/3/5 143/3/5
f 145/2/6 146/2/6 147/2/6
f 147/2/6 146/2/6 148/2/6
f 145/2/6 147/2/6 149/2/6
f 148/2/6 146/2/6 150/2/6
f 145/2/6 149/2/6 151/2/6
f 149/2/6 150/2/6 151/2/6
f 150/2/6 146/2/6 152/2/6
f 151/2/6 150/2/6 152/2/6
f 153/1/6 154/1/6 155/1/6
f 155/1/6 154/1/6 156/1/6
f 153/1/6 155/1/6 157/1/6
f 156/1/6 154/1/6 158/1/6
f 153/1/6 157/1/6 159/1/6
f 157/1/6 158/1/6 159/1/6
f 158/1/6 154/1/6 160/1/6
f 159/1/6 158/1/6 160/1/6
f 161/1/6 162/1/6 163/1/6
f 163/1/6 162/1/6 164/1/6
