# MagicaVoxel @ Ephtracy

# group
o 

# material
mtllib start-up-zone-parking-line.mtl
usemtl palette

# normals
vn -1 0 0
vn 1 0 0
vn 0 0 1
vn 0 0 -1
vn 0 -1 0
vn 0 1 0

# texcoords
vt 0.0332031 0.5
vt 0.736328 0.5

# verts
v 0 2 0
v 0 2 -1
v 0 2.1 0
v 0 2.1 -1
v 0.2 2.1 -0.2
v 0.2 2.1 -0.8
v 0.2 2.2 -0.2
v 0.2 2.2 -0.8
v 0.8 2.1 -0.2
v 0.8 2.1 -0.8
v 0.8 2.2 -0.2
v 0.8 2.2 -0.8
v 1 2 0
v 1 2 -1
v 1 2.1 0
v 1 2.1 -1
v 0 2 0
v 0 2.1 0
v 1 2 0
v 1 2.1 0
v 0.2 2.1 -0.2
v 0.2 2.2 -0.2
v 0.8 2.1 -0.2
v 0.8 2.2 -0.2
v 0.2 2.1 -0.8
v 0.2 2.2 -0.8
v 0.8 2.1 -0.8
v 0.8 2.2 -0.8
v 0 2 -1
v 0 2.1 -1
v 1 2 -1
v 1 2.1 -1
v 0 2 0
v 1 2 0
v 0 2 -1
v 1 2 -1
v 0 2.1 0
v 1 2.1 0
v 0.2 2.1 -0.2
v 0.8 2.1 -0.2
v 0.2 2.1 -0.8
v 0.8 2.1 -0.8
v 0 2.1 -1
v 1 2.1 -1
v 0.2 2.2 -0.2
v 0.8 2.2 -0.2
v 0.2 2.2 -0.8
v 0.8 2.2 -0.8

# faces
f 3/2/1 2/2/1 1/2/1
f 4/2/1 2/2/1 3/2/1
f 7/1/1 6/1/1 5/1/1
f 8/1/1 6/1/1 7/1/1
f 9/1/2 10/1/2 11/1/2
f 11/1/2 10/1/2 12/1/2
f 13/2/2 14/2/2 15/2/2
f 15/2/2 14/2/2 16/2/2
f 19/2/3 18/2/3 17/2/3
f 20/2/3 18/2/3 19/2/3
f 23/1/3 22/1/3 21/1/3
f 24/1/3 22/1/3 23/1/3
f 25/1/4 26/1/4 27/1/4
f 27/1/4 26/1/4 28/1/4
f 29/2/4 30/2/4 31/2/4
f 31/2/4 30/2/4 32/2/4
f 35/2/5 34/2/5 33/2/5
f 36/2/5 34/2/5 35/2/5
f 37/2/6 38/2/6 39/2/6
f 39/2/6 38/2/6 40/2/6
f 37/2/6 39/2/6 41/2/6
f 40/2/6 38/2/6 42/2/6
f 37/2/6 41/2/6 43/2/6
f 41/2/6 42/2/6 43/2/6
f 42/2/6 38/2/6 44/2/6
f 43/2/6 42/2/6 44/2/6
f 45/1/6 46/1/6 47/1/6
f 47/1/6 46/1/6 48/1/6
